<svg width="108.000000" height="89.000000" viewBox="0 0 108 89" fill="none" xmlns="http://www.w3.org/2000/svg" xmlns:xlink="http://www.w3.org/1999/xlink">
	<desc>
			Created with Pixso.
	</desc>
	<defs/>
	<path id="path674" d="M76.69 21.94L53.46 45.8L30.24 21.94C28.21 19.4 27.37 16.22 27.89 12.97C28.69 7.93 33.08 3.85 38.32 3.26C43.56 2.63 49.79 6.13 51.95 10.83C52.48 11.98 54.44 11.98 54.97 10.83C57.13 6.13 63.39 2.63 68.6 3.26C73.84 3.85 78.23 7.93 79.03 12.97C79.55 16.26 78.69 19.49 76.69 21.94ZM82.3 12.49C81.26 5.95 75.78 0.85 68.98 0.07C63.31 -0.54 56.92 2.43 53.46 7.01C50 2.43 43.63 -0.54 37.94 0.07C31.14 0.85 25.66 5.94 24.62 12.49C23.96 16.66 25.06 20.76 27.73 24.04C27.79 24.11 27.86 24.18 27.93 24.25L52.26 49.23C52.57 49.55 53 49.73 53.46 49.73C53.91 49.73 54.35 49.55 54.66 49.23L79.19 24.04C81.86 20.76 82.96 16.66 82.3 12.49Z" fill="#476EB9" fill-opacity="1.000000" fill-rule="nonzero"/>
	<path id="path678" d="M103.33 46.48C103.26 47.18 102.34 50.88 102.1 51.38L88.14 68.59C87.24 69.47 86.74 70.63 86.74 71.88L86.74 75.27C81.12 75.27 71.62 75.27 65.97 75.27L66.1 67.51C66.18 63.25 67.98 59.34 71.05 56.8C71.28 56.61 71.49 56.44 71.7 56.3L72.51 55.73C73.42 55.07 74.39 54.37 75.66 53.6L76.17 53.19C81 49.06 85.19 44.53 88.63 39.72C89.12 39.04 89.86 38.58 90.71 38.43C91.4 38.3 92.12 38.41 92.75 38.72L93.13 38.94C94.63 39.94 93.68 42.17 93.24 42.87L85.89 53.13C85.67 53.43 85.57 53.81 85.6 54.17C85.61 54.34 85.84 58.4 81.36 61.58L83.31 64.17C88.25 60.66 88.85 56.18 88.9 54.54L96 44.63C97.56 42.16 97.83 38.83 95.53 36.77C97.72 30.48 98.19 20.79 98.2 20.44L98.24 20.03C98.53 17.29 99.05 12.18 101.38 11.18C101.57 11.09 101.73 11.15 101.8 11.19C101.88 11.23 102.02 11.32 102.06 11.53C102.09 11.65 104.59 24.03 103.33 46.48ZM105.3 10.91C105.08 9.8 104.35 8.85 103.31 8.34C102.27 7.82 101.05 7.79 100.01 8.27C95.96 10.02 95.33 16.09 94.95 19.71L94.91 20.21C94.9 20.31 94.45 29.47 92.53 35.34C91.73 35.19 90.92 35.13 90.12 35.27C88.4 35.58 86.9 36.51 85.91 37.9C82.62 42.49 78.61 46.83 74.03 50.76L73.76 51C72.58 51.69 71.53 52.44 70.54 53.16L69.75 53.71C69.49 53.9 69.2 54.12 68.91 54.36C65.12 57.5 62.89 62.28 62.8 67.45L62.66 75.27C61.85 75.27 61.37 75.27 61.37 75.27C60.93 75.27 60.51 75.43 60.2 75.73C59.89 76.03 59.72 76.44 59.72 76.87L59.72 89L63.02 89L63.02 78.46L86.63 78.46C87.86 78.46 88.85 78.46 89.65 78.46L89.65 89L92.96 89L92.96 76.87C92.96 75.98 92.22 75.27 91.31 75.27C91.3 75.27 91.29 75.27 91.29 75.27C91.22 75.27 90.75 75.27 90.04 75.27L90.04 71.88C90.04 71.49 90.2 71.13 90.61 70.71L104.67 53.4C105.54 52.39 106.6 47.16 106.63 46.67C107.91 23.75 105.41 11.41 105.3 10.91Z" fill="#476EB9" fill-opacity="1.000000" fill-rule="nonzero"/>
	<path id="path680" d="M20.25 75.27L20.25 71.88C20.25 70.63 19.75 69.47 18.98 68.73L4.98 51.52C4.65 50.88 3.73 47.18 3.66 46.49C2.4 24.03 4.9 11.65 4.93 11.52C4.97 11.32 5.11 11.23 5.19 11.19C5.27 11.15 5.42 11.09 5.63 11.19C7.93 12.18 8.46 17.29 8.75 20.03L8.78 20.35C8.8 20.79 9.27 30.47 11.45 36.75C9.16 38.77 9.42 42.15 11.04 44.7L18.09 54.54C18.13 56.18 18.74 60.66 23.68 64.17L25.63 61.58C21.15 58.4 21.38 54.34 21.39 54.18C21.42 53.81 21.32 53.44 21.1 53.13L13.8 42.94C13.31 42.17 12.36 39.94 13.78 38.99L14.22 38.73C14.85 38.41 15.57 38.3 16.28 38.43C17.13 38.58 17.87 39.04 18.36 39.73C21.8 44.52 25.99 49.06 30.86 53.23L31.52 53.74C32.6 54.37 33.57 55.07 34.48 55.73L35.29 56.3C35.5 56.44 35.71 56.61 35.93 56.8C39.01 59.34 40.81 63.25 40.89 67.51L41.02 75.27C35.37 75.27 25.87 75.27 20.25 75.27ZM45.62 75.27C45.62 75.27 45.14 75.27 44.33 75.27L44.19 67.45C44.1 62.28 41.87 57.51 38.08 54.36C37.79 54.12 37.5 53.9 37.24 53.71L36.45 53.16C35.46 52.44 34.41 51.69 33.43 51.13L33 50.79C28.37 46.83 24.36 42.49 21.08 37.9C20.08 36.51 18.59 35.58 16.87 35.27C16.07 35.14 15.25 35.19 14.46 35.34C12.53 29.47 12.09 20.3 12.08 20.12L12.04 19.71C11.66 16.09 11.03 10.02 7 8.27C5.93 7.79 4.72 7.81 3.68 8.34C2.64 8.85 1.91 9.8 1.69 10.9C1.58 11.41 -0.92 23.75 0.36 46.67C0.39 47.16 1.45 52.39 2.29 53.37L16.51 70.85C16.79 71.13 16.95 71.49 16.95 71.88L16.95 75.27C16.24 75.27 15.77 75.27 15.7 75.27C15.7 75.27 15.69 75.27 15.68 75.27C14.77 75.27 14.03 75.98 14.03 76.87L14.03 89L17.34 89L17.34 78.46C18.14 78.46 19.13 78.46 20.36 78.46L43.96 78.46L43.96 89L47.27 89L47.27 76.87C47.27 76.44 47.1 76.03 46.79 75.73C46.48 75.43 46.05 75.27 45.62 75.27Z" fill="#476EB9" fill-opacity="1.000000" fill-rule="nonzero"/>
</svg>
