<svg width="89.000000" height="90.000000" viewBox="0 0 89 90" fill="none" xmlns="http://www.w3.org/2000/svg" xmlns:xlink="http://www.w3.org/1999/xlink">
	<desc>
			Created with Pixso.
	</desc>
	<defs/>
	<path id="path528" d="M2.52 48.34L9.58 48.76L9.77 45.91L4.12 45.57L4.12 36.67L12.97 36.15C13.64 36.1 14.21 35.65 14.35 35.02C15.13 31.5 16.57 28.21 18.6 25.23C18.97 24.69 18.92 23.99 18.47 23.51L12.61 17.21L19.24 10.91L25.88 16.47C26.39 16.9 27.12 16.95 27.69 16.6C30.82 14.67 34.29 13.31 38 12.56C38.66 12.43 39.15 11.89 39.19 11.25L39.74 2.85L49.12 2.85L49.67 11.25C49.71 11.89 50.2 12.43 50.86 12.56C54.57 13.31 58.04 14.67 61.17 16.6C61.73 16.95 62.48 16.9 62.99 16.47L69.62 10.91L76.26 17.21L70.39 23.51C69.94 23.99 69.89 24.69 70.26 25.23C72.29 28.2 73.73 31.49 74.51 35.02C74.65 35.65 75.22 36.1 75.89 36.15L84.74 36.67L84.74 45.57L79.09 45.91L79.28 48.76L86.34 48.34C87.14 48.3 87.75 47.67 87.75 46.92L87.75 35.33C87.75 34.57 87.14 33.95 86.34 33.9L77.2 33.36C76.39 30.25 75.11 27.31 73.39 24.6L79.44 18.09C79.97 17.53 79.94 16.67 79.38 16.14L70.75 7.95C70.19 7.41 69.28 7.39 68.69 7.88L61.84 13.63C58.97 12 55.88 10.78 52.6 10.01L52.04 1.33C51.99 0.58 51.33 -0.01 50.53 -0.01L38.33 -0.01C37.53 -0.01 36.87 0.58 36.82 1.33L36.26 10.01C32.98 10.78 29.89 12 27.03 13.63L20.17 7.88C19.58 7.39 18.67 7.41 18.11 7.95L9.48 16.14C8.92 16.67 8.89 17.53 9.42 18.09L15.47 24.6C13.75 27.32 12.47 30.26 11.66 33.36L2.52 33.9C1.72 33.95 1.11 34.57 1.11 35.33L1.11 46.92C1.11 47.67 1.73 48.3 2.52 48.34Z" fill="#476EB9" fill-opacity="1.000000" fill-rule="nonzero"/>
	<path id="path530" d="M60.19 70.18L54.75 67.47L56.5 64.62C57.69 65.08 58.95 65.39 60.23 65.39C62.45 65.39 64.56 64.66 66.27 63.44L66.41 66.8L60.19 70.18ZM44.42 80.45L38.23 76.48L38.38 73.03C40.09 74.26 42.2 74.99 44.41 74.99C46.66 74.99 48.79 74.25 50.5 73L50.63 76.36L44.42 80.45ZM28.86 70.19L22.62 66.81L22.8 63.45C24.5 64.67 26.6 65.39 28.79 65.39C29.98 65.39 31.13 65.12 32.24 64.73L34.17 67.71L28.86 70.19ZM18.75 52.67C18.48 52.22 17.98 51.95 17.45 51.95L16.6 52.13L16.6 49.09L17 49.09C17.84 49.09 18.51 48.45 18.51 47.67L18.51 43.05C18.51 41.86 18.83 40.73 19.44 39.79C20.72 37.82 23.39 35.47 28.83 35.44C34.69 35.44 37.22 37.96 38.41 40.09C38.85 40.88 39.08 41.86 39.08 42.89L39.08 43.01C35.7 44.11 33.66 46.11 32.5 47.89C31.6 49.28 31.12 50.93 31.12 52.66L31.12 55.88C30.04 56.06 29.21 56.97 29.21 58.04L29.21 61.74C29.21 61.99 29.3 62.22 29.37 62.46C29.17 62.47 28.99 62.53 28.79 62.53C26.14 62.53 23.67 61.06 22.46 58.69L18.75 52.67ZM44.43 25.62C48.79 25.62 52.89 27.23 55.97 30.16C56.79 30.93 57.48 31.8 58.11 32.71C51.95 33.33 49.12 36.67 47.95 38.76C47.37 39.82 47.08 41.06 47 42.35C46.24 42.25 45.44 42.19 44.56 42.19C44.52 42.19 44.48 42.19 44.43 42.19C43.58 42.2 42.78 42.25 42.03 42.34C41.95 41.05 41.65 39.81 41.07 38.76C39.9 36.65 37.02 33.27 30.77 32.7C31.39 31.79 32.07 30.93 32.88 30.16C35.97 27.23 40.07 25.62 44.43 25.62ZM50.7 68.4C49.54 70.67 47.07 72.13 44.41 72.13C41.76 72.13 39.29 70.67 38.08 68.29L34.37 62.27C34.09 61.83 33.6 61.56 33.07 61.56L32.22 61.74L32.22 58.7L32.62 58.7C33.46 58.7 34.13 58.06 34.13 57.27L34.13 52.66C34.13 51.46 34.45 50.33 35.06 49.39C36.34 47.43 39.01 45.08 44.45 45.05C50.16 44.93 52.84 47.56 54.03 49.7C54.47 50.49 54.7 51.46 54.7 52.5L54.7 57.27C54.7 58.06 55.37 58.7 56.2 58.7L56.67 58.7L56.83 61.56L55.76 61.56C55.23 61.56 54.74 61.83 54.46 62.27L50.7 68.4ZM69.58 39.78C70.19 40.73 70.52 41.86 70.52 43.05L70.52 47.67C70.52 48.45 71.19 49.09 72.02 49.09L72.46 49.09L72.61 51.95L71.58 51.95C71.04 51.95 70.55 52.22 70.28 52.67L66.51 58.79C65.36 61.06 62.89 62.53 60.23 62.53C59.99 62.53 59.74 62.47 59.5 62.44C59.57 62.21 59.65 61.99 59.65 61.74L59.65 58.05C59.65 56.96 58.81 56.05 57.71 55.87L57.71 52.5C57.71 51 57.36 49.57 56.69 48.37C55.77 46.71 53.79 44.26 49.95 43L49.95 42.89C49.95 41.86 50.18 40.88 50.62 40.09C51.8 37.95 54.42 35.44 60.19 35.44C65.63 35.47 68.31 37.82 69.58 39.78ZM79.24 70.19C74.51 68.06 71.08 66.97 69.41 66.51L69.13 60.18C69.14 60.16 69.16 60.15 69.16 60.13L72.44 54.81L72.61 54.81C74.16 54.81 75.43 53.61 75.43 52.13L75.43 48.44C75.43 47.36 74.61 46.46 73.53 46.27L73.53 43.05C73.53 41.33 73.05 39.68 72.15 38.28C70.86 36.32 67.79 33.13 61.55 32.67C60.64 31.01 59.51 29.47 58.11 28.14C54.46 24.67 49.6 22.76 44.43 22.76C39.26 22.76 34.41 24.67 30.75 28.14C29.34 29.48 28.19 31.01 27.28 32.68C21.49 33.14 18.43 35.91 16.88 38.28C15.98 39.68 15.5 41.33 15.5 43.05L15.5 46.27C14.42 46.46 13.59 47.36 13.59 48.44L13.59 52.13C13.59 53.61 14.86 54.81 16.42 54.81L19.8 60.03C19.99 60.4 20.21 60.75 20.45 61.1L19.91 61.07L19.62 66.51C17.96 66.97 14.52 68.05 9.78 70.19C7.85 71.07 1.44 74.32 0 79.71L2.95 80.27C3.81 77.06 7.72 74.3 11.08 72.78C16.11 70.5 19.6 69.48 20.86 69.15L28.07 73.05C28.3 73.17 28.55 73.23 28.81 73.23C29.04 73.23 29.26 73.19 29.47 73.09L35.49 70.28L35.23 76.12C33.57 76.58 30.13 77.66 25.41 79.8C23.47 80.67 17.06 83.93 15.61 89.32L18.57 89.88C19.43 86.67 23.34 83.9 26.7 82.38C31.64 80.14 35.1 79.12 36.41 78.77L43.59 83.37C43.84 83.53 44.14 83.61 44.43 83.61C44.73 83.61 45.03 83.52 45.29 83.35L52.43 78.66C53.79 79.06 57.26 80.16 62.19 82.38C65.49 83.88 69.36 86.6 70.35 90L73.27 89.3C73.27 89.29 73.19 89.01 73.19 89C71.68 83.86 65.37 80.66 63.48 79.8C58.73 77.65 55.28 76.51 53.63 76.02L53.41 70.02L59.51 73.07C59.74 73.18 59.97 73.23 60.21 73.23C60.47 73.23 60.73 73.17 60.96 73.05L68.17 69.15C69.43 69.48 72.91 70.5 77.95 72.78C81.31 74.3 85.21 77.06 86.1 80.33L87.57 80.04L89 79.57C87.58 74.32 81.17 71.07 79.24 70.19Z" fill="#476EB9" fill-opacity="1.000000" fill-rule="nonzero"/>
</svg>
