<svg width="107.000000" height="89.000000" viewBox="0 0 107 89" fill="none" xmlns="http://www.w3.org/2000/svg" xmlns:xlink="http://www.w3.org/1999/xlink">
	<desc>
			Created with Pixso.
	</desc>
	<defs/>
	<path id="path524" d="M91.17 37.49C90.02 38.64 89.26 40.12 88.98 41.78C88.16 46.61 87.21 49.15 83.55 53.28L68.18 38.14C71.62 38 74.22 36.25 75.38 34.93L73.1 32.93C72.96 33.09 69.66 36.57 64.38 34.4L61.26 31.33C59.72 29.8 57.24 29.72 55.6 31.14L54.83 31.82C52.81 33.56 51.01 35.82 49.17 38.93C46.41 43.59 42.19 45.36 39.67 44.35C39.15 44.14 38.87 43.84 38.73 43.33C37.85 40.13 42.7 32.2 45.93 28.02C47.77 25.86 50.82 22.8 54.65 20.58C54.7 20.56 59.51 18.61 64.51 17.65C66.34 17.3 67.94 16.48 69.14 15.28L72.41 12.03L94.59 34.09L91.17 37.49ZM86.06 65.25C85.38 65.92 84.44 66.26 83.36 66.17C82.22 66.09 81.11 65.57 80.23 64.69L67.94 52.46L67.94 52.46L67.92 52.44L65.77 54.58L80.55 69.28C82.06 70.79 82.12 73.19 80.66 74.64C79.21 76.08 76.8 76.03 75.28 74.52L73.19 72.45L60.3 59.62L58.15 61.75L71.05 74.58C72.53 76.05 72.55 78.42 71.1 79.87C69.65 81.31 67.26 81.29 65.78 79.82L63.58 77.63C63.58 77.63 63.58 77.63 63.57 77.62L63.57 77.63L52.89 66.99L50.74 69.13L61.43 79.76C62.72 81.05 62.59 83.27 61.14 84.71C59.68 86.15 57.45 86.28 56.16 85L55.03 83.87C56.42 81.58 56.14 78.57 54.15 76.59C52.79 75.24 50.93 74.69 49.15 74.92C49.19 73.24 48.58 71.54 47.29 70.27C45.93 68.9 44.09 68.32 42.3 68.45C42.54 66.48 41.93 64.43 40.41 62.92C38.92 61.44 36.91 60.84 34.96 61.04C35.1 59.26 34.52 57.44 33.16 56.08C31.1 54.04 27.98 53.73 25.57 55.1C22.85 51.78 18.99 46.44 18.03 41.66C17.7 40.04 16.95 38.62 15.87 37.54L12.39 34.09L33.63 12.96L34.85 14.17C37.21 16.52 40.48 17.7 43.58 17.33C45.8 17.06 48.82 17.22 51.52 19.05C48.04 21.37 45.32 24.07 43.56 26.13C42.6 27.37 34.24 38.45 35.8 44.13C36.19 45.55 37.14 46.59 38.54 47.15C42.82 48.86 48.51 45.99 51.79 40.46C53.46 37.64 55.06 35.62 56.82 34.09L57.59 33.42C58.03 33.04 58.7 33.06 59.12 33.47L62.6 36.9L62.57 36.95C62.62 36.97 62.66 36.98 62.71 37.01L85.49 59.45C87.26 61.2 87.51 63.8 86.06 65.25ZM45.59 85.12C45.03 84.56 44.72 83.82 44.72 83.04C44.72 82.26 45.03 81.52 45.58 80.97L47.29 79.27C47.3 79.26 47.3 79.26 47.3 79.26L47.83 78.73C48.41 78.16 49.16 77.87 49.92 77.87C50.68 77.87 51.43 78.16 52.01 78.73C52.56 79.28 52.87 80.02 52.87 80.8C52.87 81.59 52.56 82.33 52.01 82.88L49.76 85.12C48.64 86.22 46.7 86.22 45.59 85.12ZM37.94 79.57C37.3 78.94 36.95 78.1 36.95 77.21C36.95 76.31 37.3 75.47 37.94 74.84L40.39 72.4C41.05 71.75 41.91 71.42 42.77 71.42C43.63 71.42 44.49 71.75 45.14 72.4C46.45 73.71 46.45 75.82 45.15 77.13L43.44 78.83C43.44 78.83 43.44 78.83 43.44 78.83L42.69 79.57C41.42 80.84 39.21 80.84 37.94 79.57ZM35.65 72.84C34.26 74.23 31.83 74.23 30.44 72.84C29.01 71.42 29.01 69.09 30.44 67.66L30.41 67.64C30.52 67.54 30.65 67.47 30.75 67.36L33.06 65.06C34.5 63.63 36.83 63.63 38.27 65.06C39.7 66.49 39.7 68.81 38.27 70.24L38.25 70.26C38.25 70.26 38.25 70.26 38.24 70.27L35.79 72.71L35.65 72.84ZM23.98 65.22C23.36 64.61 23.02 63.79 23.02 62.92C23.02 62.05 23.36 61.24 23.98 60.62L26.39 58.22C27 57.61 27.83 57.27 28.7 57.27C29.57 57.27 30.39 57.61 31.01 58.22C31.63 58.83 31.97 59.65 31.97 60.52C31.97 61.39 31.63 62.21 31.01 62.82L30.91 62.92L28.6 65.22C27.33 66.49 25.25 66.49 23.98 65.22ZM104.85 30.32L99.97 35.16L71.64 6.98L76.51 2.13L74.36 0L68.42 5.91C67.82 6.5 67.82 7.46 68.42 8.05L70.26 9.89L66.99 13.14C66.22 13.91 65.16 14.45 63.94 14.68C59.95 15.44 56.17 16.77 54.38 17.45C50.67 14.27 46.32 13.96 43.22 14.33C41.04 14.59 38.71 13.73 37 12.04L35.78 10.82L38.57 8.05C38.86 7.76 39.02 7.38 39.02 6.98C39.02 6.58 38.86 6.2 38.57 5.91L32.63 0L30.48 2.13L35.35 6.98L7.02 35.16L2.14 30.32L0 32.46L5.94 38.37C6.24 38.66 6.63 38.81 7.02 38.81C7.41 38.81 7.8 38.66 8.09 38.37L10.25 36.23L13.72 39.68C14.38 40.33 14.84 41.23 15.05 42.26C16.1 47.48 19.92 53.01 23.26 57.05L21.83 58.48C19.37 60.93 19.37 64.91 21.83 67.36C23.06 68.58 24.67 69.19 26.29 69.19C26.34 69.19 26.38 69.18 26.43 69.18C26.37 69.53 26.33 69.89 26.33 70.25C26.33 72.04 27.02 73.72 28.29 74.98C29.6 76.28 31.33 76.94 33.05 76.94C33.35 76.94 33.65 76.89 33.95 76.85C33.94 76.97 33.91 77.09 33.91 77.21C33.91 78.91 34.58 80.51 35.79 81.71C37 82.91 38.6 83.58 40.31 83.58C40.79 83.58 41.26 83.51 41.72 83.4C41.81 84.86 42.39 86.22 43.44 87.25C44.57 88.38 46.07 89 47.67 89C49.27 89 50.77 88.38 51.91 87.25L53.02 86.14L54.01 87.14C55.16 88.28 56.71 88.9 58.38 88.9C58.47 88.9 58.56 88.9 58.65 88.9C60.38 88.83 62.02 88.1 63.28 86.84C64.36 85.78 64.99 84.45 65.23 83.1C66.25 83.65 67.36 83.96 68.49 83.96C70.22 83.96 71.94 83.31 73.25 82.01C74.36 80.89 74.97 79.49 75.14 78.02C76.07 78.46 77.07 78.7 78.08 78.7C79.8 78.7 81.51 78.06 82.81 76.77C84.86 74.74 85.26 71.69 84.09 69.17C85.67 69.07 87.11 68.47 88.2 67.39C90.84 64.76 90.59 60.24 87.64 57.31L85.71 55.41C89.88 50.7 91.07 47.62 91.98 42.28C92.15 41.25 92.61 40.33 93.32 39.63L96.74 36.23L98.9 38.37C99.19 38.67 99.58 38.82 99.97 38.82C100.36 38.82 100.75 38.67 101.05 38.37L107 32.46L104.85 30.32Z" fill="#476EB9" fill-opacity="1.000000" fill-rule="nonzero"/>
</svg>
