<svg width="94" height="116" viewBox="0 0 94 116" fill="none" xmlns="http://www.w3.org/2000/svg">
<path d="M47.0103 69.4437C33.9264 69.4437 23.2805 58.8645 23.2805 45.8608C23.2805 32.8571 33.9264 22.2845 47.0103 22.2845C60.0935 22.2845 70.7406 32.8571 70.7406 45.8608C70.7406 58.8645 60.0935 69.4437 47.0103 69.4437ZM74.2675 45.8608C74.2675 30.9294 62.0403 18.7736 47.0103 18.7736C31.9776 18.7736 19.749 30.9294 19.749 45.8608C19.749 60.7988 31.9776 72.948 47.0103 72.948C62.0403 72.948 74.2675 60.7988 74.2675 45.8608Z" fill="#476EB9"/>
<path d="M75.2945 96.3719C74.2612 96.1732 73.2545 96.7627 72.9145 97.7697L68.6476 110.475L54.5269 86.1769C55.4737 85.0839 56.4604 84.0704 57.2604 83.865C58.3604 83.5603 60.3472 84.2824 62.1073 84.9117C64.8808 85.9186 67.7542 86.9387 70.0943 85.5873C72.4811 84.2161 73.0211 81.2086 73.5345 78.3005C73.8145 76.7305 74.1412 75.0281 74.7346 74.0874L89.1219 98.8627L75.2945 96.3719ZM47.0107 88.2172C45.8399 88.2172 44.3139 86.4154 42.9685 84.8189C41.3937 82.9575 39.7663 81.0298 37.6722 80.4667C37.1862 80.3408 36.6842 80.2878 36.1755 80.2878C34.4114 80.2878 32.5346 80.9569 30.7086 81.6127C28.7925 82.3083 26.6217 83.0767 25.6917 82.5467C24.7276 81.9969 24.321 79.7049 23.9623 77.6844C23.5309 75.2599 23.0842 72.7426 21.5182 71.1925C19.9528 69.6358 17.4226 69.1919 14.9772 68.7613C12.9471 68.4036 10.645 67.9995 10.0883 67.0456C9.55027 66.1182 10.3363 63.9587 11.0284 62.0575C11.8797 59.719 12.7598 57.3011 12.1784 55.1416C11.6197 53.0615 9.68094 51.4451 7.80486 49.8818C6.20079 48.5437 4.38342 47.0267 4.38342 45.8608C4.38342 44.7015 6.20079 43.1845 7.80486 41.8464C9.68094 40.283 11.6197 38.6667 12.1784 36.5866C12.7598 34.4271 11.8797 32.0025 11.0284 29.6641C10.3363 27.7563 9.5516 25.6033 10.0883 24.6825C10.645 23.722 12.9471 23.3179 14.9772 22.9602C17.4246 22.5362 19.9541 22.0858 21.5201 20.5357C23.0862 18.9789 23.5329 16.4683 23.9636 14.0371C24.3223 12.0167 24.7296 9.73125 25.6937 9.1748C26.6217 8.64485 28.7945 9.41991 30.7106 10.1088C33.066 10.9568 35.5061 11.818 37.6722 11.2549C39.7663 10.6984 41.3937 8.77073 42.9685 6.90927C44.3139 5.31279 45.8399 3.50433 47.0107 3.50433C48.18 3.50433 49.7061 5.31279 51.0515 6.90927C52.6269 8.77073 54.2536 10.6984 56.3471 11.2549C58.5138 11.8113 60.9539 10.9568 63.3141 10.1088C65.2275 9.41991 67.3942 8.64485 68.3343 9.1748C69.2943 9.73125 69.701 12.0167 70.061 14.0371C70.4877 16.4683 70.9344 18.9789 72.5011 20.5357C74.0679 22.0858 76.5946 22.5362 79.0414 22.9602C81.0748 23.3179 83.3749 23.722 83.935 24.6825C84.4683 25.6033 83.6816 27.7629 82.9949 29.6641C82.1415 32.0025 81.2615 34.4271 81.8415 36.5866C82.4015 38.6667 84.3417 40.283 86.2151 41.8464C87.8218 43.1845 89.6352 44.7015 89.6352 45.8608C89.6352 47.0267 87.8218 48.5437 86.2151 49.8818C84.3417 51.4451 82.4015 53.0615 81.8415 55.1416C81.2615 57.3011 82.1415 59.7191 82.9949 62.0641C83.6816 63.9653 84.4683 66.1182 83.935 67.0456C83.3749 67.9995 81.0748 68.4036 79.0414 68.7613C76.5946 69.1919 74.0679 69.6358 72.5011 71.1925C70.9344 72.7493 70.4877 75.2599 70.0543 77.6911C69.701 79.7115 69.2876 81.9969 68.3276 82.5467C67.4009 83.0833 65.2275 82.3083 63.3141 81.6127C60.9539 80.7714 58.5205 79.9102 56.3471 80.4667C54.2536 81.0298 52.6269 82.9575 51.0515 84.8189C49.7061 86.4154 48.18 88.2172 47.0107 88.2172ZM25.3743 110.475L21.0941 97.7564C20.7614 96.7694 19.7421 96.1665 18.7234 96.3653L4.87471 98.8494L19.2747 74.0675C19.8714 75.0015 20.2027 76.7173 20.4834 78.3005C21.0014 81.2086 21.5355 84.2095 23.9222 85.5873C26.271 86.9453 29.1392 85.912 31.9086 84.9117C33.666 84.2824 35.6528 83.5669 36.7621 83.865C37.5595 84.0704 38.5436 85.0839 39.4936 86.1769L25.3743 110.475ZM93.7154 99.7503L77.9147 72.5505C78.4881 72.4313 79.0814 72.3187 79.6548 72.2193C82.5816 71.7092 85.6084 71.1726 86.9884 68.8011C88.3485 66.4693 87.3151 63.6208 86.3151 60.8717C85.6817 59.1229 84.9617 57.1421 85.255 56.0425C85.5284 55.0356 87.0951 53.7239 88.4818 52.5647C90.6819 50.7363 93.1687 48.6629 93.1687 45.8608C93.1687 43.0653 90.6819 40.9918 88.4818 39.1569C87.0951 38.0042 85.5284 36.6926 85.255 35.6791C84.9617 34.5794 85.6817 32.5987 86.3151 30.8565C87.3151 28.1008 88.3485 25.2589 86.9884 22.9271C85.6084 20.5555 82.5815 20.0256 79.6614 19.5089C77.8413 19.1909 75.7813 18.8266 75.0012 18.0515C74.2212 17.2765 73.8545 15.2295 73.5345 13.4277C73.0211 10.5196 72.4811 7.51208 70.0943 6.14084C67.7475 4.78283 64.8808 5.81625 62.1073 6.80991C60.3472 7.43922 58.3604 8.16128 57.2604 7.86318C56.2404 7.59821 54.9203 6.02822 53.7602 4.65034C51.9135 2.47092 49.8268 0 47.0107 0C44.1932 0 42.1044 2.47092 40.263 4.65034C39.099 6.03484 37.7775 7.59821 36.7621 7.86318C35.6548 8.16791 33.668 7.44585 31.9106 6.80991C29.1392 5.81625 26.2817 4.78283 23.9243 6.14084C21.5375 7.51208 21.0028 10.5129 20.4854 13.4277C20.1648 15.2295 19.8007 17.2765 19.0227 18.0515C18.2433 18.8266 16.1826 19.1843 14.3632 19.5023C11.4384 20.019 8.41354 20.5489 7.03015 22.9204C5.67142 25.2589 6.70616 28.1008 7.70687 30.8565C8.3409 32.6053 9.06162 34.586 8.76694 35.6791C8.49493 36.6926 6.92148 38.0042 5.53542 39.1569C3.33999 40.9918 0.851226 43.0653 0.851226 45.8608C0.851226 48.6629 3.33999 50.7363 5.53542 52.5647C6.92148 53.7239 8.49493 55.0356 8.76694 56.0425C9.06162 57.1421 8.3409 59.1162 7.70687 60.8651C6.70616 63.6208 5.66944 66.4627 7.03217 68.8011C8.41156 71.1726 11.4364 71.7026 14.3619 72.2193C14.9299 72.3187 15.5112 72.4246 16.0799 72.5439L0.279195 99.7371C-0.128157 100.439 -0.0868008 101.327 0.383887 101.989C0.856575 102.652 1.68261 102.983 2.48131 102.844L18.1387 100.035L23.0296 114.569C23.2896 115.344 23.9896 115.907 24.8103 115.987C24.883 116 24.9537 116 25.0263 116C25.771 116 26.4697 115.603 26.8524 114.953L41.9457 88.9724C43.3831 90.4762 45.0112 91.7282 47.0107 91.7282C49.0094 91.7282 50.6374 90.4762 52.0735 88.9724L67.1675 114.96C67.5476 115.609 68.2476 116 68.9943 116C69.0676 116 69.141 116 69.2143 115.987C70.0344 115.907 70.7343 115.344 70.9943 114.569L75.8679 100.042L91.5153 102.857C92.302 102.983 93.1421 102.665 93.6154 102.003C94.0888 101.34 94.1288 100.453 93.7154 99.7503Z" fill="#476EB9"/>
<path d="M43.6708 50.67L36.9118 43.9528L34.415 46.4369L42.4221 54.3862C42.7675 54.7307 43.2188 54.903 43.6708 54.903C44.1228 54.903 44.5742 54.7307 44.9195 54.3862L59.5875 39.8192L57.0874 37.335L43.6708 50.67Z" fill="#476EB9"/>
</svg>
