<svg width="102" height="116" viewBox="0 0 102 116" fill="none" xmlns="http://www.w3.org/2000/svg">
<path d="M66.4616 112.488C48.8055 112.488 34.4478 98.1839 34.4478 80.5931C34.4478 77.234 34.9932 73.9477 36.0173 70.7873C50.6476 70.5885 63.1565 61.5513 68.4101 48.7971C85.1552 49.8108 98.4754 63.6648 98.4754 80.5931C98.4754 98.1839 84.1111 112.488 66.4616 112.488ZM3.52458 35.4069C3.52458 17.8161 17.8823 3.51154 35.5318 3.51154C53.1879 3.51154 67.5456 17.8161 67.5456 35.4069C67.5456 52.9911 53.1879 67.3023 35.5318 67.3023C17.8823 67.3023 3.52458 52.9911 3.52458 35.4069ZM69.6204 45.3452C70.5514 42.1915 71.0702 38.8588 71.0702 35.4069C71.0702 15.888 55.1298 0 35.5318 0C15.9405 0 0 15.888 0 35.4069C0 53.859 14.2513 69.0381 32.353 70.6482C31.4086 73.8682 30.9232 77.1942 30.9232 80.5931C30.9232 100.112 46.8636 116 66.4616 116C86.0529 116 102 100.112 102 80.5931C102 62.1343 87.7354 46.9486 69.6204 45.3452Z" fill="#476EB9"/>
<path d="M53.2548 93.7448L50.7676 96.2294C55.0968 100.543 60.776 102.689 66.4619 102.689C72.1411 102.689 77.827 100.543 82.1563 96.2294L79.6625 93.7448C72.3806 101 60.5367 101 53.2548 93.7448Z" fill="#476EB9"/>
<path d="M78.498 69.2898C74.4481 69.2898 71.1562 72.576 71.1562 76.6044H74.6742C74.6742 74.5041 76.3899 72.8013 78.498 72.8013C80.6061 72.8013 82.3219 74.5041 82.3219 76.6044H85.8464C85.8464 72.576 82.548 69.2898 78.498 69.2898Z" fill="#476EB9"/>
<path d="M54.4187 72.8013C56.5268 72.8013 58.2492 74.5041 58.2492 76.6044H61.7671C61.7671 72.576 58.4753 69.2898 54.4187 69.2898C50.3688 69.2898 47.0703 72.576 47.0703 76.6044H50.5949C50.5949 74.5041 52.3106 72.8013 54.4187 72.8013Z" fill="#476EB9"/>
<path d="M51.2268 51.0431L48.7396 48.5585C45.2084 52.07 40.5201 54.0047 35.5324 54.0047C30.5515 54.0047 25.8631 52.07 22.3385 48.5585L19.8447 51.0431C24.1673 55.3497 29.8532 57.503 35.5324 57.503C41.2183 57.503 46.9042 55.3497 51.2268 51.0431Z" fill="#476EB9"/>
<path d="M47.576 27.6085C49.684 27.6085 51.3998 29.3179 51.3998 31.4182H54.9244C54.9244 27.3832 51.6259 24.0969 47.576 24.0969C43.526 24.0969 40.2275 27.3832 40.2275 31.4182H43.7521C43.7521 29.3179 45.4679 27.6085 47.576 27.6085Z" fill="#476EB9"/>
<path d="M23.4949 27.6085C25.6096 27.6085 27.3187 29.3179 27.3187 31.4182H30.8433C30.8433 27.3832 27.5448 24.0969 23.4949 24.0969C19.445 24.0969 16.1465 27.3832 16.1465 31.4182H19.6711C19.6711 29.3179 21.3868 27.6085 23.4949 27.6085Z" fill="#476EB9"/>
</svg>
