<svg width="170" height="67" viewBox="0 0 170 67" fill="none" xmlns="http://www.w3.org/2000/svg">
<path d="M34.6258 2.09741C33.9542 2.09767 33.2975 2.29601 32.738 2.66761C32.1784 3.03922 31.7409 3.56758 31.4802 4.18659H23.0325C21.6358 4.18659 21.6358 6.27972 23.0325 6.27972H31.2982C31.4662 7.03774 31.8873 7.71597 32.4921 8.20284C33.0969 8.6897 33.8494 8.95619 34.6258 8.95846C35.4029 8.95709 36.1564 8.69101 36.762 8.20407C37.3676 7.71713 37.7892 7.0384 37.9574 6.27972H46.0649C47.4616 6.27972 47.4616 4.18263 46.0649 4.18263H37.7715C37.5099 3.56375 37.0715 3.03579 36.5113 2.66487C35.951 2.29395 35.2938 2.09656 34.6219 2.09741H34.6258ZM31.405 9.9793V14.2843C29.1831 15.0572 27.3059 16.5906 26.105 18.6136C24.9041 20.6365 24.4568 23.0188 24.8422 25.3395C25.2275 27.6603 26.4207 29.7702 28.211 31.2964C30.0013 32.8226 32.2733 33.667 34.6258 33.6804C36.9994 33.6778 39.2943 32.8287 41.0978 31.2855C42.9013 29.7423 44.0951 27.6064 44.4647 25.2617C44.8343 22.9171 44.3553 20.5175 43.1139 18.4944C41.8725 16.4713 39.9501 14.9574 37.6923 14.2249V10.1099C36.8139 10.7034 35.7575 11.0595 34.6298 11.0595C33.4269 11.0595 32.319 10.648 31.405 9.9793ZM5.23098 15.7087C4.39904 15.7139 3.60278 16.0473 3.01524 16.6363C2.4277 17.2253 2.09637 18.0224 2.09326 18.8543V29.3121C2.09326 31.0333 3.50979 32.4577 5.23098 32.4577H12.5668C14.288 32.4577 15.7006 31.0372 15.7046 29.316H23.9979C23.0554 27.5378 22.5761 25.5506 22.6045 23.5382C22.6329 21.5257 23.1679 19.5529 24.1602 17.8018H15.5107C15.2946 17.1924 14.8962 16.6642 14.3695 16.289C13.8428 15.9138 13.2135 15.7098 12.5668 15.7048L5.23098 15.7087ZM45.0955 17.8018C46.0881 19.5528 46.6233 21.5256 46.6517 23.5382C46.68 25.5507 46.2006 27.5379 45.2577 29.316H47.2044C49.0245 29.316 50.2472 30.5506 50.2472 32.3825V34.6973C48.4508 35.1721 47.1094 36.8023 47.1094 38.7371C47.1094 41.04 48.9968 42.9234 51.3036 42.9234H60.7207C63.0236 42.9234 64.907 41.04 64.907 38.7371C64.907 36.7983 63.5657 35.1721 61.7693 34.7012V31.9433C61.7693 28.3941 60.9542 24.8607 58.7107 22.182C56.4672 19.5033 52.8151 17.8018 47.612 17.8018H45.0955ZM6.27953 18.8425H11.5222C12.919 18.8425 12.919 20.9396 11.5222 20.9396H6.27953C4.88279 20.9396 4.88279 18.8425 6.27953 18.8425ZM6.27953 23.0366H11.5222C12.9467 23.0366 12.9467 25.1298 11.5222 25.1298H6.27953C4.85509 25.1298 4.85509 23.0366 6.27953 23.0366ZM6.27953 27.2229H11.5222C12.9467 27.2229 12.9467 29.32 11.5222 29.32H6.27953C4.85509 29.32 4.85509 27.2229 6.27953 27.2229ZM56.4989 47.1532C56.3527 47.1585 56.2092 47.1943 56.0777 47.2583C55.9462 47.3224 55.8295 47.4133 55.7352 47.5251C55.7352 47.5251 54.2593 49.2621 52.7835 51.4107C52.0217 52.4973 51.3343 53.6341 50.7259 54.8135C50.1522 55.9609 49.7209 57.0609 49.7209 58.1649C49.7209 61.8842 52.7874 64.9112 56.5305 64.9112C60.2736 64.9112 63.348 61.8842 63.348 58.1649C63.348 57.057 62.9128 55.9609 62.3351 54.8095C61.7265 53.6316 61.0391 52.496 60.2776 51.4107C59.3542 50.0726 58.372 48.7761 57.3337 47.5251C57.2321 47.4046 57.1046 47.3087 56.9608 47.2443C56.8169 47.1799 56.6564 47.1487 56.4989 47.1532ZM59.87 57.0768C60.0104 57.0741 60.1499 57.0996 60.2802 57.1519C60.4104 57.2041 60.5289 57.282 60.6286 57.3809C60.7282 57.4798 60.807 57.5977 60.8602 57.7276C60.9134 57.8575 60.94 57.9968 60.9384 58.1372C60.9384 60.1156 59.3517 61.7774 57.3812 61.7774C55.9568 61.8051 55.9568 59.6487 57.3812 59.6803C58.1845 59.6803 58.8413 59.0156 58.8413 58.1372C58.8381 57.8604 58.9445 57.5936 59.1372 57.395C59.3299 57.1964 59.5933 57.082 59.87 57.0768Z" fill="#476EB9"/>
<path d="M75.2686 5.65039H79.4785C82.9707 5.65039 84.7168 6.91602 84.7168 9.44727C84.7168 10.9355 83.9873 12.0869 82.5283 12.9014L86.2812 18.5H82.3438L79.6191 13.8242H78.7402V18.5H75.2686V5.65039ZM78.7402 8.27832V11.2139H79.3906C80.6035 11.2139 81.21 10.6777 81.21 9.60547C81.21 8.7207 80.6152 8.27832 79.4258 8.27832H78.7402ZM92.4684 8.36621C93.7457 8.36621 94.733 8.68555 95.4303 9.32422C96.1334 9.96289 96.485 10.8447 96.485 11.9697V18.5H94.1032L93.444 17.1816H93.3737C92.8991 17.7617 92.4245 18.1572 91.9498 18.3682C91.4752 18.5732 90.8571 18.6758 90.0954 18.6758C89.1579 18.6758 88.4196 18.3945 87.8805 17.832C87.3414 17.2637 87.0719 16.4668 87.0719 15.4414C87.0719 14.4102 87.4323 13.6309 88.153 13.1035C88.8795 12.5762 89.9577 12.2803 91.3873 12.2158L93.0485 12.1631V12.0225C93.0485 11.2021 92.6442 10.792 91.8356 10.792C91.109 10.792 90.1862 11.0381 89.067 11.5303L88.0739 9.2627C89.234 8.66504 90.6989 8.36621 92.4684 8.36621ZM90.5787 15.3359C90.5787 15.9453 90.9039 16.25 91.5543 16.25C91.9762 16.25 92.3336 16.1182 92.6266 15.8545C92.9196 15.5908 93.0661 15.248 93.0661 14.8262V14.0527L92.275 14.0879C91.1442 14.1289 90.5787 14.5449 90.5787 15.3359ZM102.619 9.81641C103.264 8.84961 104.143 8.36621 105.256 8.36621C106.369 8.36621 107.237 8.82617 107.858 9.74609C108.485 10.6543 108.798 11.9111 108.798 13.5166C108.798 15.1162 108.47 16.376 107.814 17.2959C107.163 18.2158 106.279 18.6758 105.159 18.6758C104.638 18.6758 104.178 18.5908 103.78 18.4209C103.387 18.2451 103 17.9463 102.619 17.5244H102.461C102.567 18.2158 102.619 18.6494 102.619 18.8252V22.8242H99.1829V8.54199H101.978L102.461 9.81641H102.619ZM102.619 13.4814C102.619 14.3311 102.734 14.9492 102.962 15.3359C103.191 15.7168 103.536 15.9072 103.999 15.9072C104.468 15.9072 104.802 15.7168 105.001 15.3359C105.2 14.9551 105.3 14.334 105.3 13.4727C105.3 12.6113 105.2 11.9961 105.001 11.627C104.802 11.252 104.465 11.0645 103.991 11.0645C103.516 11.0645 103.173 11.2373 102.962 11.583C102.751 11.9287 102.637 12.4707 102.619 13.209V13.4814ZM111.057 6.06348C111.057 5.54199 111.2 5.1582 111.487 4.91211C111.78 4.66016 112.24 4.53418 112.867 4.53418C113.5 4.53418 113.966 4.66309 114.265 4.9209C114.563 5.17285 114.713 5.55371 114.713 6.06348C114.713 7.07129 114.103 7.5752 112.885 7.5752C111.666 7.5752 111.057 7.07129 111.057 6.06348ZM114.581 18.5H111.144V8.54199H114.581V18.5ZM126.543 18.5H123.95L123.211 17.2432H123.08C122.494 18.1982 121.612 18.6758 120.434 18.6758C120.405 18.6758 120.373 18.6758 120.337 18.6758C119.324 18.6758 118.498 18.2129 117.859 17.2871C117.22 16.3613 116.901 15.0986 116.901 13.499C116.907 11.8994 117.235 10.6484 117.885 9.74609C118.536 8.82617 119.429 8.36621 120.566 8.36621C121.134 8.36621 121.627 8.48047 122.043 8.70898C122.459 8.9375 122.836 9.3125 123.176 9.83398H123.247C123.135 9.06055 123.08 8.27832 123.08 7.4873V4.82422H126.543V18.5ZM123.37 13.5693C123.37 12.7021 123.244 12.0811 122.992 11.7061C122.746 11.3252 122.35 11.1348 121.805 11.1348C121.354 11.1348 121.002 11.3486 120.751 11.7764C120.504 12.1982 120.381 12.7988 120.381 13.5781C120.381 14.3574 120.507 14.9492 120.759 15.3535C121.011 15.7578 121.389 15.96 121.893 15.96C122.397 15.96 122.763 15.793 122.992 15.459C123.226 15.1191 123.352 14.5801 123.37 13.8418V13.5693ZM75.2686 27.6504H79.7158C81.3213 27.6504 82.5342 28.002 83.3545 28.7051C84.1807 29.4082 84.5938 30.4219 84.5938 31.7461C84.5938 33.1816 84.1689 34.2891 83.3193 35.0684C82.4697 35.8477 81.2686 36.2373 79.7158 36.2373H78.7402V40.5H75.2686V27.6504ZM78.7402 30.4541V33.4072H79.373C79.8945 33.4072 80.3076 33.2607 80.6123 32.9678C80.9229 32.6748 81.0781 32.2734 81.0781 31.7637C81.0781 30.8906 80.5977 30.4541 79.6367 30.4541H78.7402ZM90.236 40.5H86.7995V26.8242H90.236V40.5ZM102.663 40.5H100.071L99.6399 39.2607H99.4378C99.1507 39.7178 98.7493 40.0693 98.2337 40.3154C97.7239 40.5557 97.1233 40.6758 96.4319 40.6758C95.3304 40.6758 94.4749 40.3564 93.8655 39.7178C93.262 39.0791 92.9602 38.1826 92.9602 37.0283V30.542H96.3968V35.9824C96.3968 36.6445 96.4905 37.1396 96.678 37.4678C96.8655 37.7959 97.1673 37.96 97.5833 37.96C98.1751 37.96 98.597 37.7285 98.8489 37.2656C99.1009 36.8027 99.2268 36.0146 99.2268 34.9014V30.542H102.663V40.5ZM117.604 30.3662C118.776 30.3662 119.643 30.668 120.206 31.2715C120.774 31.8691 121.059 32.7861 121.059 34.0225V40.5H117.622V35.0859C117.622 34.4062 117.528 33.8994 117.341 33.5654C117.159 33.2314 116.869 33.0645 116.471 33.0645C115.943 33.0645 115.557 33.29 115.31 33.7412C115.064 34.1924 114.941 34.8984 114.941 35.8594V40.5H111.496V35.0859C111.496 34.4062 111.405 33.8994 111.224 33.5654C111.048 33.2314 110.767 33.0645 110.38 33.0645C109.835 33.0645 109.439 33.3076 109.193 33.7939C108.953 34.2744 108.833 35.0566 108.833 36.1406V40.5H105.396V30.542H107.989L108.42 31.7812H108.622C108.886 31.3242 109.267 30.9756 109.765 30.7354C110.263 30.4893 110.834 30.3662 111.478 30.3662C112.914 30.3662 113.922 30.8027 114.502 31.6758H114.774C115.056 31.2656 115.445 30.9463 115.943 30.7178C116.447 30.4834 117.001 30.3662 117.604 30.3662ZM127.193 26.8242V29.918C127.193 30.2461 127.152 30.8848 127.07 31.834H127.193C127.826 30.8555 128.696 30.3662 129.803 30.3662C130.911 30.3662 131.781 30.8232 132.414 31.7373C133.052 32.6279 133.372 33.8818 133.372 35.499C133.372 37.1104 133.049 38.376 132.405 39.2959C131.766 40.2158 130.876 40.6758 129.733 40.6758C129.053 40.6758 128.467 40.5264 127.975 40.2275C127.752 40.0869 127.492 39.8525 127.193 39.5244H126.982L126.437 40.5H123.756V26.8242H127.193ZM127.193 35.1387V35.6221C127.193 36.4365 127.304 37.0225 127.527 37.3799C127.75 37.7314 128.113 37.9072 128.617 37.9072C129.021 37.9072 129.332 37.6992 129.548 37.2832C129.765 36.8672 129.874 36.2607 129.874 35.4639C129.874 33.8643 129.443 33.0645 128.582 33.0645C128.101 33.0645 127.75 33.2314 127.527 33.5654C127.304 33.8994 127.193 34.4238 127.193 35.1387ZM135.63 28.0635C135.63 27.542 135.774 27.1582 136.061 26.9121C136.354 26.6602 136.814 26.5342 137.441 26.5342C138.073 26.5342 138.539 26.6631 138.838 26.9209C139.137 27.1729 139.286 27.5537 139.286 28.0635C139.286 29.0713 138.677 29.5752 137.458 29.5752C136.239 29.5752 135.63 29.0713 135.63 28.0635ZM139.154 40.5H135.718V30.542H139.154V40.5ZM148.145 30.3662C149.253 30.3662 150.111 30.6885 150.721 31.333C151.33 31.9775 151.635 32.874 151.635 34.0225V40.5H148.198V35.0684C148.198 34.3945 148.101 33.8936 147.908 33.5654C147.715 33.2314 147.41 33.0645 146.994 33.0645C146.408 33.0645 145.986 33.2988 145.728 33.7676C145.476 34.2305 145.35 35.0215 145.35 36.1406V40.5H141.914V30.542H144.507L144.937 31.7812H145.139C145.725 30.8379 146.727 30.3662 148.145 30.3662ZM158.639 38.1621H160.291C162.524 38.1621 163.64 39.1025 163.64 40.9834C163.64 42.1963 163.124 43.1396 162.093 43.8135C161.062 44.4873 159.609 44.8242 157.734 44.8242C156.322 44.8242 155.232 44.5869 154.464 44.1123C153.703 43.6377 153.322 42.9609 153.322 42.082C153.322 40.8867 154.06 40.1191 155.537 39.7793C155.238 39.6621 154.974 39.457 154.746 39.1641C154.517 38.8652 154.403 38.5723 154.403 38.2852C154.403 37.9922 154.488 37.7256 154.658 37.4854C154.828 37.2451 155.182 36.9609 155.721 36.6328C155.2 36.3984 154.792 36.0381 154.499 35.5518C154.207 35.0596 154.06 34.4707 154.06 33.7852C154.06 32.707 154.429 31.8691 155.167 31.2715C155.906 30.668 156.96 30.3662 158.332 30.3662C158.542 30.3662 158.874 30.3896 159.325 30.4365C159.776 30.4775 160.086 30.5127 160.256 30.542H163.728V32.2031L162.366 32.7041C162.553 33.0498 162.647 33.4453 162.647 33.8906C162.647 34.9746 162.266 35.8096 161.504 36.3955C160.743 36.9814 159.624 37.2744 158.147 37.2744C157.795 37.2744 157.502 37.251 157.268 37.2041C157.186 37.3564 157.145 37.5 157.145 37.6348C157.145 37.8047 157.28 37.9365 157.549 38.0303C157.819 38.1182 158.182 38.1621 158.639 38.1621ZM158.367 32.2734C157.658 32.2734 157.303 32.7832 157.303 33.8027C157.303 34.8223 157.658 35.332 158.367 35.332C159.052 35.332 159.395 34.8223 159.395 33.8027C159.395 32.7832 159.052 32.2734 158.367 32.2734ZM158.885 40.8428H157.541C157.171 40.8428 156.858 40.9277 156.6 41.0977C156.348 41.2734 156.222 41.4932 156.222 41.7568C156.222 42.0264 156.374 42.2461 156.679 42.416C156.984 42.5918 157.391 42.6797 157.901 42.6797C158.727 42.6797 159.392 42.5742 159.896 42.3633C160.4 42.1582 160.652 41.8916 160.652 41.5635C160.652 41.083 160.063 40.8428 158.885 40.8428ZM82.8623 52.4365H78.6875V54.8887H82.5283V57.6748H78.6875V62.5H75.2686V49.6504H82.8623V52.4365ZM85.0592 50.0635C85.0592 49.542 85.2028 49.1582 85.4899 48.9121C85.7829 48.6602 86.2428 48.5342 86.8698 48.5342C87.5026 48.5342 87.9684 48.6631 88.2672 48.9209C88.5661 49.1729 88.7155 49.5537 88.7155 50.0635C88.7155 51.0713 88.1061 51.5752 86.8873 51.5752C85.6686 51.5752 85.0592 51.0713 85.0592 50.0635ZM88.5836 62.5H85.1471V52.542H88.5836V62.5ZM98.1634 57.4199L101.407 62.5H97.5042L95.8255 59.4766L94.1555 62.5H90.2356L93.4524 57.4199L90.4114 52.542H94.3137L95.8255 55.3369L97.3723 52.542H101.283L98.1634 57.4199Z" fill="#476EB9"/>
</svg>
